<svg width="37" height="39" viewBox="0 0 37 39" fill="none" xmlns="http://www.w3.org/2000/svg">
<path fill-rule="evenodd" clip-rule="evenodd" d="M20.0007 39C18.2068 39 16.6026 38.8519 15.1881 38.5556C13.7737 38.2594 12.5705 37.7148 11.5787 36.9219C10.5868 36.129 9.81923 35.0312 9.27588 33.6283C8.73252 32.2255 8.44359 30.4176 8.40909 28.2044C7.77086 28.309 7.16282 28.4005 6.58497 28.4789C6.00711 28.5573 5.47669 28.627 4.99371 28.688C4.51072 28.749 4.09674 28.7926 3.75175 28.8187C3.40676 28.8448 3.14802 28.8579 2.97552 28.8579V24.8324C3.04453 24.8324 3.23427 24.8194 3.54476 24.7932C3.85525 24.7671 4.25198 24.7279 4.73497 24.6756C5.21795 24.6233 5.77424 24.558 6.40384 24.4796C7.03345 24.4011 7.70187 24.3009 8.40909 24.179V16.0757C6.80489 15.9538 5.46375 15.6009 4.38567 15.0171C3.30758 14.4333 2.44511 13.7232 1.79825 12.8867C1.1514 12.0503 0.689977 11.1397 0.413986 10.1552C0.137995 9.17057 0 8.20777 0 7.26675C0 6.04692 0.241493 4.97956 0.724479 4.06467C1.20746 3.1498 1.82413 2.39175 2.57448 1.79055C3.32483 1.18934 4.16143 0.740613 5.08427 0.444364C6.00711 0.148121 6.89977 0 7.76224 0C9.40093 0 10.7464 0.222184 11.7986 0.666552C12.8508 1.11093 13.6831 1.71213 14.2955 2.47017C14.9078 3.22821 15.3347 4.11696 15.5762 5.13639C15.8177 6.15583 15.9385 7.2319 15.9385 8.36461V10.1682H26.8315C28.2977 10.1682 29.6518 10.3381 30.8937 10.678C32.1357 11.0178 33.2094 11.5188 34.115 12.181C35.0206 12.8432 35.7279 13.6796 36.2367 14.6903C36.7456 15.7011 37 16.8686 37 18.193C37 19.3257 36.8404 20.4367 36.5213 21.5258C36.2022 22.6149 35.7149 23.5908 35.0594 24.4534C34.404 25.316 33.5674 26.0087 32.5497 26.5315C31.5319 27.0543 30.3245 27.3157 28.9273 27.3157C28.6513 27.3157 28.3408 27.2678 27.9958 27.1719C27.6508 27.0761 27.3101 26.9497 26.9738 26.7929C26.6374 26.6361 26.3269 26.4574 26.0423 26.257C25.7577 26.0566 25.555 25.8432 25.4343 25.6166C25.141 26.0523 24.7098 26.4444 24.1406 26.7929C23.5713 27.1414 22.9676 27.3157 22.3294 27.3157C22.0361 27.3157 21.7213 27.259 21.385 27.1458C21.0486 27.0325 20.7295 26.8844 20.4276 26.7014C20.1258 26.5184 19.8541 26.3093 19.6126 26.0741C19.3711 25.8388 19.1986 25.6079 19.0951 25.3814C18.7329 25.6079 18.2844 25.8214 17.7497 26.0218C17.2149 26.2222 16.6198 26.4182 15.9643 26.6099C15.9816 28.0389 16.1066 29.1847 16.3395 30.0473C16.5724 30.9099 16.9131 31.5764 17.3615 32.0469C17.81 32.5174 18.3663 32.8267 19.0304 32.9749C19.6945 33.123 20.4751 33.197 21.372 33.197C22.062 33.197 22.7563 33.1578 23.4549 33.0794C24.1535 33.001 24.8392 32.8965 25.5119 32.7658C26.1846 32.6351 26.8185 32.5 27.4136 32.3606C28.0087 32.2212 28.5478 32.0818 29.0308 31.9424V37.5362C28.5305 37.7627 27.9009 37.9675 27.142 38.1505C26.383 38.3334 25.5809 38.4859 24.7357 38.6079C23.8904 38.7299 23.0495 38.8257 22.2129 38.8954C21.3763 38.9651 20.6389 39 20.0007 39ZM26.3399 16.1019H15.9643V21.9832C16.7233 21.5999 17.3357 21.1773 17.8014 20.7155C18.2671 20.2537 18.5172 19.7353 18.5517 19.1602L21.8119 19.5523C21.8119 19.9008 21.8291 20.2363 21.8636 20.5586C21.8981 20.881 21.9585 21.1642 22.0448 21.4082C22.131 21.6521 22.2474 21.8482 22.3941 21.9963C22.5407 22.1444 22.7261 22.2185 22.9504 22.2185C23.2608 22.2185 23.5325 22.1183 23.7654 21.9179C23.9983 21.7175 24.188 21.4692 24.3346 21.1729C24.4812 20.8767 24.589 20.5499 24.658 20.1927C24.727 19.8355 24.7615 19.5087 24.7615 19.2125L27.9182 19.5523C27.9182 20.2842 28.0432 20.9115 28.2934 21.4343C28.5435 21.9571 28.9531 22.2185 29.5224 22.2185C29.7294 22.2185 29.9579 22.1967 30.208 22.1532C30.4582 22.1096 30.691 21.9832 30.9066 21.7741C31.1223 21.565 31.3034 21.2426 31.45 20.807C31.5966 20.3713 31.6699 19.7527 31.6699 18.9511C31.6699 18.3063 31.5104 17.7966 31.1913 17.4219C30.8721 17.0473 30.4582 16.7597 29.9493 16.5593C29.4404 16.3589 28.8669 16.2326 28.2287 16.1803C27.5904 16.128 26.9608 16.1019 26.3399 16.1019ZM5.25245 6.58713C5.25245 7.02279 5.32145 7.44537 5.45944 7.85489C5.59744 8.26441 5.80443 8.63036 6.08042 8.95274C6.35641 9.27513 6.68846 9.54524 7.07658 9.76307C7.46469 9.9809 7.90886 10.1159 8.40909 10.1682V6.74397C8.40909 6.01206 8.29266 5.45878 8.05979 5.08411C7.82693 4.70945 7.45175 4.52212 6.93427 4.52212C6.48579 4.52212 6.09336 4.67895 5.757 4.99263C5.42063 5.3063 5.25245 5.8378 5.25245 6.58713Z" fill="white"/>
</svg>
